<svg width="48" height="48" viewBox="0 0 48 48" fill="none" xmlns="http://www.w3.org/2000/svg">
<circle cx="24" cy="24" r="23" fill="white" stroke="#989898" stroke-width="2"/>
<g clip-path="url(#clip0_630_1151)">
<path d="M24 25.4999C27.594 25.4999 30.8625 26.5409 33.267 28.0079C34.467 28.7399 35.493 29.6039 36.234 30.5429C36.963 31.4654 37.5 32.5694 37.5 33.7499C37.5 35.0174 36.8835 36.0164 35.9955 36.7289C35.1555 37.4039 34.047 37.8509 32.8695 38.1629C30.5025 38.7884 27.3435 38.9999 24 38.9999C20.6565 38.9999 17.4975 38.7899 15.1305 38.1629C13.953 37.8509 12.8445 37.4039 12.0045 36.7289C11.115 36.0149 10.5 35.0174 10.5 33.7499C10.5 32.5694 11.037 31.4654 11.766 30.5414C12.507 29.6039 13.5315 28.7414 14.733 28.0064C17.1375 26.5424 20.4075 25.4999 24 25.4999ZM24 8.99994C25.9891 8.99994 27.8968 9.79012 29.3033 11.1966C30.7098 12.6032 31.5 14.5108 31.5 16.4999C31.5 18.4891 30.7098 20.3967 29.3033 21.8032C27.8968 23.2098 25.9891 23.9999 24 23.9999C22.0109 23.9999 20.1032 23.2098 18.6967 21.8032C17.2902 20.3967 16.5 18.4891 16.5 16.4999C16.5 14.5108 17.2902 12.6032 18.6967 11.1966C20.1032 9.79012 22.0109 8.99994 24 8.99994Z" fill="#989898"/>
</g>
<defs>
<clipPath id="clip0_630_1151">
<rect width="36" height="36" fill="white" transform="translate(6 6)"/>
</clipPath>
</defs>
</svg>
