<svg width="240" height="240" viewBox="0 0 240 240" fill="none" xmlns="http://www.w3.org/2000/svg">
<path fill-rule="evenodd" clip-rule="evenodd" d="M226.694 124.8C224.184 181.557 177.375 226.8 120 226.8C62.6246 226.8 15.8165 181.557 13.306 124.8H89.4002V124.8H94.2002V124.8H94.7998V124.545L95.4823 122.232L95.4874 122.234L101.856 103H101.963L103.065 99.3482L103.378 98.4013L103.353 98.393L104.736 93.8124H120.564L121.936 98.3564L121.8 98.4013L129.691 122.234L129.696 122.232L130.379 124.545V124.8H130.978V124.8H135.778L214.979 124.8L226.694 124.8ZM226.694 115.2H213.6L141.441 115.2L137.032 101.886L121.556 54.9999H103.744L90.7934 94.2344L90.6909 94.2004L83.7377 115.2H13.3059C15.8161 58.4437 62.6244 13.2 120 13.2C177.376 13.2 224.184 58.4437 226.694 115.2ZM120 240C186.274 240 240 186.274 240 120C240 53.7258 186.274 0 120 0C53.7258 0 0 53.7258 0 120C0 186.274 53.7258 240 120 240ZM112.838 68.2186L117.621 84.0624H107.68L112.463 68.2186H112.838ZM60.0002 55.1995H85.2002V64.1995H79.5191V89.1063C79.5035 92.2313 78.7145 94.9813 77.152 97.3563C75.6051 99.7157 73.4645 101.559 70.7301 102.888C68.0113 104.2 64.8785 104.856 61.3316 104.856C58.2535 104.856 55.441 104.325 52.8941 103.263C51.873 102.83 50.9348 102.3 50.0795 101.672L55.3001 92.4236L60.011 94.3665L60.0434 94.288C60.6518 94.5836 61.3624 94.7313 62.1754 94.7313C63.1441 94.7313 63.9566 94.5204 64.6129 94.0985C65.2848 93.6767 65.7926 93.0517 66.1363 92.2235C66.4801 91.3798 66.6598 90.3407 66.6754 89.1063V64.1995H60.0002V55.1995ZM148.294 95.3992V62.9996H143.4V55.1996H148.294V54.9995H169.106C172.763 54.9995 175.833 55.4917 178.317 56.4761C180.817 57.4605 182.7 58.8511 183.966 60.648C185.247 62.4449 185.888 64.562 185.888 66.9995C185.888 68.7652 185.497 70.3745 184.716 71.8277C183.95 73.2808 182.872 74.4995 181.481 75.4839C180.091 76.4527 178.466 77.1245 176.606 77.4995V77.9683C178.669 78.0464 180.544 78.5699 182.231 79.5386C183.919 80.4917 185.263 81.812 186.263 83.4996C187.263 85.1714 187.763 87.1402 187.763 89.4058C187.763 92.0308 187.075 94.3667 185.7 96.4136C184.341 98.4605 182.403 100.07 179.888 101.242C177.372 102.414 174.372 103 170.888 103H151.2V103.199H143.4V95.3992H148.294ZM161.325 92.5933H167.419C169.606 92.5933 171.247 92.1871 172.341 91.3746C173.434 90.5464 173.981 89.3277 173.981 87.7183C173.981 86.5933 173.723 85.6402 173.208 84.8589C172.692 84.0777 171.958 83.4839 171.005 83.0777C170.067 82.6714 168.934 82.4683 167.606 82.4683H161.325V92.5933ZM161.325 74.4058H166.669C167.809 74.4058 168.817 74.2261 169.692 73.8667C170.567 73.5074 171.247 72.9917 171.731 72.3199C172.231 71.6324 172.481 70.7964 172.481 69.812C172.481 68.3277 171.95 67.1949 170.888 66.4136C169.825 65.6167 168.481 65.2183 166.856 65.2183H161.325V74.4058ZM87.8998 179.4V160.2C87.8998 157.715 85.8851 155.7 83.3998 155.7C80.9146 155.7 78.8998 157.715 78.8998 160.2V179.4C78.8998 181.885 80.9146 183.9 83.3998 183.9C85.8851 183.9 87.8998 181.885 87.8998 179.4ZM83.3998 147.6C76.4411 147.6 70.7999 153.241 70.7999 160.2V179.4C70.7999 186.359 76.4411 192 83.3998 192C87.2455 192 90.6887 190.277 92.9999 187.561C95.311 190.277 98.7543 192 102.6 192C106.446 192 109.889 190.277 112.2 187.561C113.094 188.612 114.157 189.514 115.347 190.225C115.01 192.67 115.06 195.15 116.202 197.393C117.956 200.84 121.644 202.594 126.002 203.955C126.206 204.023 126.419 204.075 126.637 204.108C126.855 204.141 127.072 204.155 127.287 204.15H150.537C150.66 204.152 150.782 204.148 150.903 204.138C151.443 204.095 151.951 203.937 152.402 203.689C152.853 203.443 153.259 203.1 153.586 202.668C153.66 202.571 153.729 202.47 153.794 202.366L167.508 180.9C167.701 180.615 167.851 180.308 167.957 179.989C168.105 179.548 168.167 179.09 168.147 178.639C168.122 178.05 167.958 177.464 167.653 176.934C167.516 176.694 167.352 176.469 167.162 176.262L154.498 161.841C154.232 161.538 153.928 161.288 153.6 161.093V153.9C153.6 146.776 147.825 141 140.7 141C137.697 141 134.934 142.026 132.741 143.747C130.57 139.955 126.483 137.4 121.8 137.4C117.189 137.4 113.157 139.877 110.96 143.573C108.736 141.599 105.808 140.4 102.6 140.4C96.7689 140.4 91.8629 144.361 90.426 149.739C88.4187 148.388 86.0014 147.6 83.3998 147.6ZM127.781 196.65H148.546L159.722 179.156L153.6 172.185V179.1C153.6 186.225 147.825 192 140.7 192C136.932 192 133.542 190.385 131.184 187.809C129.064 190.173 126.065 191.731 122.701 191.968C122.597 193.108 122.715 193.655 122.886 193.991C123.114 194.44 123.933 195.397 127.781 196.65ZM107.1 153V179.4C107.1 181.885 105.085 183.9 102.6 183.9C100.115 183.9 98.1 181.885 98.1 179.4V153C98.1 150.515 100.115 148.5 102.6 148.5C105.085 148.5 107.1 150.515 107.1 153ZM126.3 179.4V150C126.3 147.515 124.285 145.5 121.8 145.5C119.315 145.5 117.3 147.515 117.3 150V179.4C117.3 181.885 119.315 183.9 121.8 183.9C124.285 183.9 126.3 181.885 126.3 179.4ZM145.5 153.9V179.1C145.5 181.751 143.351 183.9 140.7 183.9C138.049 183.9 135.9 181.751 135.9 179.1V153.9C135.9 151.249 138.049 149.1 140.7 149.1C143.351 149.1 145.5 151.249 145.5 153.9Z" fill="#00DC56"/>
</svg>
